<svg xmlns="http://www.w3.org/2000/svg" viewBox="0 0 64 88">
  <path d="M 42,22 54.065,24.28 64,22 42,0 38.965,10.43 Z" fill="#f29900" />
  <path d="M 42,22 V 0 H 6 C 2.685,0 0,2.685 0,6 v 76 c 0,3.315 2.685,6 6,6 h 52 c 3.315,0 6,-2.685 6,-6 V 22 Z" fill="#fbbc04" />
  <!-- Rounded shield with "K" cutout -->
  <path d="M 21 27 H 43 A 3 3 0 0 1 46 30 V 43 C 46 53 40 61 32 64 C 24 61 18 53 18 43 V 30 A 3 3 0 0 1 21 27 Z" fill="#fff" />
  <path d="M 27 35 H 30 V 42 L 36.5 35 H 40.5 L 33 44 L 40.5 53 H 36.5 L 30 46 V 53 H 27 Z" fill="#fbbc04" />
</svg>
