<svg xmlns="http://www.w3.org/2000/svg" viewBox="0 0 64 88">
  <path d="M 42,22 54.065,24.28 64,22 42,0 38.965,10.43 Z" fill="#f29900" />
  <path d="M 42,22 V 0 H 6 C 2.685,0 0,2.685 0,6 v 76 c 0,3.315 2.685,6 6,6 h 52 c 3.315,0 6,-2.685 6,-6 V 22 Z" fill="#fbbc04" />
  <!-- Shield with padlock cutout -->
  <path d="M 18 27 H 46 V 43 C 46 53 40 61 32 64 C 24 61 18 53 18 43 Z" fill="#fff" />
  <path d="M 28 41 v -2 a 4 4 0 0 1 8 0 v 2" fill="none" stroke="#fbbc04" stroke-width="2.4" />
  <rect x="26.5" y="41" width="11" height="10" rx="1.5" fill="#fbbc04" />
</svg>
