<svg xmlns="http://www.w3.org/2000/svg" viewBox="0 0 64 88">
  <path d="M 42,22 54.065,24.28 64,22 42,0 38.965,10.43 Z" fill="#f29900" />
  <path d="M 42,22 V 0 H 6 C 2.685,0 0,2.685 0,6 v 76 c 0,3.315 2.685,6 6,6 h 52 c 3.315,0 6,-2.685 6,-6 V 22 Z" fill="#fbbc04" />
  <!-- Shield with star cutout -->
  <path d="M 18 27 H 46 V 43 C 46 53 40 61 32 64 C 24 61 18 53 18 43 Z" fill="#fff" />
  <path d="M 32 36 L 34.06 41.17 L 39.61 41.53 L 35.33 45.08 L 36.70 50.47 L 32 47.5 L 27.30 50.47 L 28.67 45.08 L 24.39 41.53 L 29.94 41.17 Z" fill="#fbbc04" />
</svg>
